<svg width="32" height="32" viewBox="0 0 32 32" fill="none" xmlns="http://www.w3.org/2000/svg">
<path d="M24 2.5H12C11.337 2.5 10.7011 2.76339 10.2322 3.23223C9.76339 3.70107 9.5 4.33696 9.5 5V7.5H8C7.33696 7.5 6.70107 7.76339 6.23223 8.23223C5.76339 8.70107 5.5 9.33696 5.5 10V28C5.49997 28.2802 5.57842 28.5548 5.72645 28.7927C5.87448 29.0305 6.08617 29.2222 6.33755 29.3459C6.58893 29.4697 6.86994 29.5205 7.14874 29.4928C7.42754 29.465 7.69298 29.3597 7.915 29.1887L13.5 24.8925L19.0863 29.1887C19.3083 29.3593 19.5736 29.4643 19.8522 29.4919C20.1308 29.5195 20.4116 29.4685 20.6627 29.3448C20.9139 29.2211 21.1254 29.0296 21.2734 28.792C21.4213 28.5543 21.4998 28.28 21.5 28V22.2L24.085 24.1887C24.307 24.3597 24.5725 24.465 24.8513 24.4928C25.1301 24.5205 25.4111 24.4697 25.6624 24.3459C25.9138 24.2222 26.1255 24.0305 26.2736 23.7927C26.4216 23.5548 26.5 23.2802 26.5 23V5C26.5 4.33696 26.2366 3.70107 25.7678 3.23223C25.2989 2.76339 24.663 2.5 24 2.5ZM18.5 24.9537L14.4137 21.8112C14.1516 21.6096 13.8301 21.5003 13.4994 21.5003C13.1686 21.5003 12.8472 21.6096 12.585 21.8112L8.5 24.9537V10.5H18.5V24.9537ZM23.5 19.9537L21.5 18.4162V10C21.5 9.33696 21.2366 8.70107 20.7678 8.23223C20.2989 7.76339 19.663 7.5 19 7.5H12.5V5.5H23.5V19.9537Z" fill="white"/>
</svg>
