<svg width="32" height="32" viewBox="0 0 32 32" fill="none" xmlns="http://www.w3.org/2000/svg">
<g clip-path="url(#clip0_18_355)">
<path d="M31.5 15.5C31.4984 14.1351 31.1252 12.7964 30.4205 11.6275C29.7158 10.4586 28.7062 9.50364 27.5 8.86501C27.4719 7.54018 27.0395 6.25559 26.2609 5.18337C25.4822 4.11115 24.3945 3.30252 23.1434 2.86586C21.8923 2.42919 20.5376 2.38535 19.2608 2.7402C17.9841 3.09504 16.8463 3.83163 16 4.85126C15.1536 3.83163 14.0158 3.09504 12.7391 2.7402C11.4624 2.38535 10.1077 2.42919 8.85658 2.86586C7.60547 3.30252 6.51771 4.11115 5.73906 5.18337C4.9604 6.25559 4.52807 7.54018 4.49997 8.86501C3.29248 9.50191 2.28174 10.4563 1.57668 11.6253C0.871633 12.7943 0.499023 14.1336 0.499023 15.4988C0.499023 16.8639 0.871633 18.2032 1.57668 19.3722C2.28174 20.5412 3.29248 21.4956 4.49997 22.1325C4.52757 23.4575 4.95956 24.7425 5.73802 25.8151C6.51649 26.8877 7.60423 27.6967 8.85544 28.1337C10.1067 28.5706 11.4616 28.6147 12.7385 28.2599C14.0155 27.9052 15.1535 27.1685 16 26.1488C16.8465 27.1685 17.9845 27.9052 19.2614 28.2599C20.5384 28.6147 21.8933 28.5706 23.1445 28.1337C24.3957 27.6967 25.4835 26.8877 26.2619 25.8151C27.0404 24.7425 27.4724 23.4575 27.5 22.1325C28.7066 21.495 29.7167 20.5407 30.4215 19.372C31.1263 18.2034 31.4991 16.8647 31.5 15.5ZM11 25.5C10.2448 25.4999 9.50983 25.2555 8.90493 24.8034C8.30003 24.3512 7.85761 23.7155 7.64372 22.9913C7.76872 22.9913 7.87997 23 7.99997 23H8.99997C9.3978 23 9.77933 22.842 10.0606 22.5607C10.3419 22.2794 10.5 21.8978 10.5 21.5C10.5 21.1022 10.3419 20.7207 10.0606 20.4393C9.77933 20.158 9.3978 20 8.99997 20H7.99997C6.93788 20.0007 5.90976 19.6258 5.0975 18.9415C4.28524 18.2572 3.7412 17.3077 3.56162 16.2609C3.38204 15.2141 3.5785 14.1375 4.11625 13.2216C4.654 12.3057 5.49836 11.6095 6.49997 11.2563C6.79255 11.1528 7.04584 10.9612 7.22494 10.7077C7.40404 10.4543 7.50013 10.1516 7.49997 9.84126V9.00001C7.49997 8.07175 7.86872 7.18151 8.5251 6.52513C9.18148 5.86875 10.0717 5.50001 11 5.50001C11.9282 5.50001 12.8185 5.86875 13.4748 6.52513C14.1312 7.18151 14.5 8.07175 14.5 9.00001V16.5225C14.2132 16.3386 13.9122 16.1777 13.6 16.0413C13.2353 15.8821 12.8223 15.8744 12.452 16.0197C12.0816 16.1651 11.7841 16.4516 11.625 16.8163C11.4658 17.1809 11.4581 17.5939 11.6034 17.9643C11.7488 18.3346 12.0353 18.6321 12.4 18.7913C13.1375 19.1125 13.7418 19.6781 14.1113 20.3927C14.4807 21.1074 14.5927 21.9275 14.4283 22.715C14.264 23.5025 13.8334 24.2094 13.209 24.7166C12.5845 25.2239 11.8045 25.5005 11 25.5ZM24 20H23C22.6021 20 22.2206 20.158 21.9393 20.4393C21.658 20.7207 21.5 21.1022 21.5 21.5C21.5 21.8978 21.658 22.2794 21.9393 22.5607C22.2206 22.842 22.6021 23 23 23H24C24.125 23 24.2375 23 24.3562 22.9913C24.1896 23.556 23.8832 24.0695 23.4654 24.4844C23.0476 24.8993 22.5319 25.202 21.9661 25.3647C21.4002 25.5273 20.8024 25.5445 20.2281 25.4148C19.6538 25.2851 19.1215 25.0126 18.6805 24.6225C18.2395 24.2324 17.904 23.7374 17.7051 23.1832C17.5061 22.6291 17.4503 22.0337 17.5426 21.4522C17.6348 20.8707 17.8724 20.3218 18.2331 19.8565C18.5938 19.3912 19.0661 19.0244 19.6062 18.79C19.9709 18.6309 20.2574 18.3334 20.4028 17.963C20.5481 17.5926 20.5404 17.1797 20.3812 16.815C20.2221 16.4503 19.9246 16.1638 19.5542 16.0185C19.1838 15.8731 18.7709 15.8809 18.4062 16.04C18.094 16.1764 17.793 16.3373 17.5062 16.5213V9.00001C17.5062 8.07175 17.875 7.18151 18.5313 6.52513C19.1877 5.86875 20.078 5.50001 21.0062 5.50001C21.9345 5.50001 22.8247 5.86875 23.4811 6.52513C24.1375 7.18151 24.5062 8.07175 24.5062 9.00001V9.84126C24.5061 10.1516 24.6021 10.4543 24.7812 10.7077C24.9604 10.9612 25.2136 11.1528 25.5062 11.2563C26.5123 11.6063 27.3616 12.302 27.903 13.2195C28.4443 14.1369 28.6426 15.2167 28.4626 16.2666C28.2827 17.3166 27.736 18.2687 26.92 18.9534C26.104 19.6382 25.0715 20.0113 24.0062 20.0063L24 20ZM26 14.5C26 14.8978 25.8419 15.2794 25.5606 15.5607C25.2793 15.842 24.8978 16 24.5 16C23.1739 16 21.9021 15.4732 20.9644 14.5355C20.0268 13.5979 19.5 12.3261 19.5 11V10.5C19.5 10.1022 19.658 9.72065 19.9393 9.43934C20.2206 9.15804 20.6021 9.00001 21 9.00001C21.3978 9.00001 21.7793 9.15804 22.0606 9.43934C22.3419 9.72065 22.5 10.1022 22.5 10.5V11C22.5 11.5304 22.7107 12.0391 23.0858 12.4142C23.4608 12.7893 23.9695 13 24.5 13C24.8978 13 25.2793 13.158 25.5606 13.4393C25.8419 13.7206 26 14.1022 26 14.5ZM12.5 11C12.5 12.3261 11.9732 13.5979 11.0355 14.5355C10.0978 15.4732 8.82605 16 7.49997 16C7.10215 16 6.72062 15.842 6.43931 15.5607C6.15801 15.2794 5.99997 14.8978 5.99997 14.5C5.99997 14.1022 6.15801 13.7206 6.43931 13.4393C6.72062 13.158 7.10215 13 7.49997 13C8.03041 13 8.53911 12.7893 8.91419 12.4142C9.28926 12.0391 9.49997 11.5304 9.49997 11V10.5C9.49997 10.1022 9.65801 9.72065 9.93931 9.43934C10.2206 9.15804 10.6021 9.00001 11 9.00001C11.3978 9.00001 11.7793 9.15804 12.0606 9.43934C12.3419 9.72065 12.5 10.1022 12.5 10.5V11Z" fill="white"/>
</g>
<defs>
<clipPath id="clip0_18_355">
<rect width="32" height="32" fill="white"/>
</clipPath>
</defs>
</svg>
