<svg width="47" height="56" viewBox="0 0 47 56" fill="none" xmlns="http://www.w3.org/2000/svg">
<path d="M37.4717 14.0546C37.4717 6.28904 31.1061 0 23.253 0C15.389 0 9.0234 6.31092 9.03434 14.0765C9.04528 18.1452 10.7953 21.7984 13.5843 24.3577C15.5093 26.1187 16.6359 28.5577 16.6359 31.1499V33.8952H29.8702V31.1936C29.8702 28.6015 30.9858 26.1296 32.9108 24.3687C35.7217 21.7984 37.4717 18.1343 37.4717 14.0546Z" fill="url(#paint0_linear_9_39)"/>
<path d="M23.253 0C21.6999 0 20.2124 0.251562 18.8124 0.699998V33.8952H29.8702V31.1936C29.8702 28.6015 30.9858 26.1296 32.9108 24.3687C35.7108 21.7984 37.4717 18.1343 37.4717 14.0546C37.4717 6.28904 31.1061 0 23.253 0Z" fill="url(#paint1_linear_9_39)"/>
<path d="M9.03434 14.0765C9.04528 18.1452 10.7953 21.7984 13.5843 24.3577C15.5093 26.1187 16.6359 28.5577 16.6359 31.1499V33.8952H29.8702V31.1936C29.8702 28.6015 30.9858 26.1296 32.9108 24.3687C35.7108 21.7984 37.4717 18.1343 37.4717 14.0546C37.4717 13.3546 37.4171 12.6656 37.3186 11.9984H9.18746C9.07809 12.6765 9.03434 13.3765 9.03434 14.0765Z" fill="url(#paint2_linear_9_39)"/>
<path d="M22.0171 30.7233C21.6781 30.7233 21.3937 30.4499 21.3937 30.0999V27.6499C21.3937 26.3265 20.8687 25.0577 19.9281 24.1171L19.7312 23.9202C18.6703 22.8593 18.0906 21.4484 18.0906 19.9499V17.5656C18.0906 17.2265 18.364 16.9421 18.714 16.9421C19.0531 16.9421 19.3374 17.2156 19.3374 17.5656V19.6984C19.3374 21.0218 19.8624 22.2905 20.8031 23.2312L20.9999 23.428C22.0609 24.489 22.6406 25.8999 22.6406 27.3983V30.1108C22.6296 30.4499 22.3562 30.7233 22.0171 30.7233Z" fill="url(#paint3_linear_9_39)"/>
<path d="M24.489 30.7233C24.828 30.7233 25.1124 30.4499 25.1124 30.0999V27.6499C25.1124 26.3265 25.6374 25.0577 26.578 24.1171L26.7749 23.9202C27.8358 22.8593 28.4155 21.4484 28.4155 19.9499V17.5656C28.4155 17.2265 28.1421 16.9421 27.7921 16.9421C27.453 16.9421 27.1687 17.2156 27.1687 17.5656V19.6984C27.1687 21.0218 26.6437 22.2905 25.703 23.2312L25.5062 23.428C24.4452 24.489 23.8655 25.8999 23.8655 27.3983V30.1108C23.8765 30.4499 24.1499 30.7233 24.489 30.7233Z" fill="url(#paint4_linear_9_39)"/>
<path d="M30.2421 31.4015V45.303C30.2421 45.6311 30.2093 45.9592 30.1327 46.2764L23.253 53.1014L16.3734 46.2873C16.3077 45.9702 16.264 45.642 16.264 45.3139V31.4015H30.2421Z" fill="url(#paint5_linear_9_39)"/>
<path d="M22.1702 52.0295L23.253 53.1014L30.1327 46.2873C30.1983 45.9702 30.2421 45.642 30.2421 45.3139V31.4015H22.1702V52.0295Z" fill="url(#paint6_linear_9_39)"/>
<path d="M25.9218 31.4015V45.303V45.3139C25.9218 45.9045 25.8015 46.4842 25.5937 47.0311L23.253 53.1014L20.9124 47.0311C20.7046 46.4842 20.5843 45.9045 20.5843 45.3139V45.303V31.4015H25.9218Z" fill="url(#paint7_linear_9_39)"/>
<path d="M16.264 31.4015H30.2421V41.978H16.264V31.4015Z" fill="url(#paint8_linear_9_39)"/>
<path d="M30.1327 46.2873C29.9905 46.9327 29.728 47.5342 29.3343 48.0701L25.5936 53.1889H20.8905L17.1499 48.0701C16.7562 47.5342 16.4937 46.9217 16.3515 46.2873L16.4281 46.2217C16.964 45.6858 17.839 45.6858 18.3859 46.2217L19.3484 47.1842C19.8843 47.7201 20.7593 47.7201 21.3062 47.1842L22.2687 46.2217C22.8046 45.6858 23.6796 45.6858 24.2265 46.2217L25.189 47.1842C25.7249 47.7201 26.5999 47.7201 27.1468 47.1842L28.1093 46.2217C28.6452 45.6858 29.5202 45.6858 30.0671 46.2217L30.1327 46.2873Z" fill="url(#paint9_linear_9_39)"/>
<path d="M30.1327 46.2873C29.9905 46.9327 29.728 47.5342 29.3343 48.0701L25.5936 53.1889H20.8905L17.1499 48.0701C16.7562 47.5342 16.4937 46.9217 16.3515 46.2873L16.4281 46.2217C16.964 45.6858 17.839 45.6858 18.3859 46.2217L19.3484 47.1842C19.8843 47.7201 20.7593 47.7201 21.3062 47.1842L22.2687 46.2217C22.8046 45.6858 23.6796 45.6858 24.2265 46.2217L25.189 47.1842C25.7249 47.7201 26.5999 47.7201 27.1468 47.1842L28.1093 46.2217C28.6452 45.6858 29.5202 45.6858 30.0671 46.2217L30.1327 46.2873Z" fill="url(#paint10_linear_9_39)"/>
<path d="M23.253 52.8607C22.378 52.8607 21.5796 52.9811 20.9015 53.1889L22.7827 55.7592C23.0124 56.0764 23.4937 56.0764 23.7233 55.7592L25.6046 53.1889C24.9265 52.9811 24.128 52.8607 23.253 52.8607Z" fill="url(#paint11_linear_9_39)"/>
<path d="M16.5156 28.3827H30.0015C31.2155 28.3827 32.1999 29.3671 32.1999 30.5811C32.1999 31.7952 31.2155 32.7796 30.0015 32.7796H16.5156C15.3015 32.7796 14.3171 31.7952 14.3171 30.5811C14.3062 29.3671 15.2906 28.3827 16.5156 28.3827Z" fill="url(#paint12_linear_9_39)"/>
<path d="M0 13.2562C0 12.6546 0.492186 12.1734 1.08281 12.1734H3.81717C4.41874 12.1734 4.89998 12.6656 4.89998 13.2562C4.89998 13.8578 4.4078 14.339 3.81717 14.339H1.08281C0.492186 14.35 0 13.8578 0 13.2562Z" fill="url(#paint13_linear_9_39)"/>
<path d="M2.27499 24.4999C2.0453 23.9421 2.29686 23.3077 2.85467 23.078L5.38123 22.0171C5.93904 21.7874 6.57341 22.039 6.8031 22.5968C7.03278 23.1546 6.78122 23.789 6.22341 24.0187L3.69686 25.0796C3.14999 25.3202 2.50468 25.0577 2.27499 24.4999Z" fill="url(#paint14_linear_9_39)"/>
<path d="M2.72343 3.78436C2.16562 3.55467 1.90312 2.9203 2.12187 2.36249C2.35156 1.80468 2.98593 1.54218 3.54374 1.76093L6.08124 2.79999C6.63905 3.02968 6.90155 3.66405 6.6828 4.22186C6.45311 4.77967 5.81874 5.04217 5.26093 4.82342C5.26093 4.81248 2.72343 3.78436 2.72343 3.78436Z" fill="url(#paint15_linear_9_39)"/>
<path d="M46.5061 13.2562C46.5061 12.6546 46.0139 12.1734 45.4233 12.1734H42.6889C42.0874 12.1734 41.6061 12.6656 41.6061 13.2562C41.6061 13.8578 42.0983 14.339 42.6889 14.339H45.4233C46.0139 14.35 46.5061 13.8578 46.5061 13.2562Z" fill="url(#paint16_linear_9_39)"/>
<path d="M44.2311 24.4999C44.4608 23.9421 44.2092 23.3077 43.6514 23.078L41.1249 22.0171C40.567 21.7874 39.9327 22.039 39.703 22.5968C39.4733 23.1546 39.7249 23.789 40.2827 24.0187L42.8092 25.0796C43.3561 25.3202 44.0014 25.0577 44.2311 24.4999Z" fill="url(#paint17_linear_9_39)"/>
<path d="M43.7827 3.78436C44.3405 3.55467 44.603 2.9203 44.3842 2.36249C44.1545 1.80468 43.5202 1.54218 42.9624 1.76093L40.4249 2.79999C39.8671 3.02968 39.6046 3.66405 39.8233 4.22186C40.053 4.77967 40.6874 5.04217 41.2452 4.82342L43.7827 3.78436Z" fill="url(#paint18_linear_9_39)"/>
<defs>
<linearGradient id="paint0_linear_9_39" x1="13.4012" y1="7.43846" x2="34.6859" y2="28.723" gradientUnits="userSpaceOnUse">
<stop stop-color="#FEF48B"/>
<stop offset="0.1646" stop-color="#FDF286"/>
<stop offset="0.3352" stop-color="#FDEE7A"/>
<stop offset="0.5086" stop-color="#FCE765"/>
<stop offset="0.6839" stop-color="#FCDE48"/>
<stop offset="0.8589" stop-color="#FBD123"/>
<stop offset="1" stop-color="#FAC600"/>
</linearGradient>
<linearGradient id="paint1_linear_9_39" x1="26.3324" y1="18.5652" x2="35.3536" y2="22.3509" gradientUnits="userSpaceOnUse">
<stop stop-color="#FE9738" stop-opacity="0"/>
<stop offset="0.1207" stop-color="#FE9738" stop-opacity="0.016"/>
<stop offset="0.2459" stop-color="#FE9738" stop-opacity="0.065"/>
<stop offset="0.3731" stop-color="#FE9738" stop-opacity="0.147"/>
<stop offset="0.5018" stop-color="#FE9738" stop-opacity="0.262"/>
<stop offset="0.6317" stop-color="#FE9738" stop-opacity="0.41"/>
<stop offset="0.7625" stop-color="#FE9738" stop-opacity="0.59"/>
<stop offset="0.8916" stop-color="#FE9738" stop-opacity="0.8"/>
<stop offset="1" stop-color="#FE9738"/>
</linearGradient>
<linearGradient id="paint2_linear_9_39" x1="23.253" y1="23.7612" x2="23.253" y2="29.2761" gradientUnits="userSpaceOnUse">
<stop stop-color="#FE9738" stop-opacity="0"/>
<stop offset="0.1207" stop-color="#FE9738" stop-opacity="0.016"/>
<stop offset="0.2459" stop-color="#FE9738" stop-opacity="0.065"/>
<stop offset="0.3731" stop-color="#FE9738" stop-opacity="0.147"/>
<stop offset="0.5018" stop-color="#FE9738" stop-opacity="0.262"/>
<stop offset="0.6317" stop-color="#FE9738" stop-opacity="0.41"/>
<stop offset="0.7625" stop-color="#FE9738" stop-opacity="0.59"/>
<stop offset="0.8916" stop-color="#FE9738" stop-opacity="0.8"/>
<stop offset="1" stop-color="#FE9738"/>
</linearGradient>
<linearGradient id="paint3_linear_9_39" x1="13.9696" y1="7.4587" x2="24.2794" y2="33.8779" gradientUnits="userSpaceOnUse">
<stop stop-color="#FE9738" stop-opacity="0"/>
<stop offset="0.1207" stop-color="#FE9738" stop-opacity="0.016"/>
<stop offset="0.2459" stop-color="#FE9738" stop-opacity="0.065"/>
<stop offset="0.3731" stop-color="#FE9738" stop-opacity="0.147"/>
<stop offset="0.5018" stop-color="#FE9738" stop-opacity="0.262"/>
<stop offset="0.6317" stop-color="#FE9738" stop-opacity="0.41"/>
<stop offset="0.7625" stop-color="#FE9738" stop-opacity="0.59"/>
<stop offset="0.8916" stop-color="#FE9738" stop-opacity="0.8"/>
<stop offset="1" stop-color="#FE9738"/>
</linearGradient>
<linearGradient id="paint4_linear_9_39" x1="18.9892" y1="5.49979" x2="29.2992" y2="31.919" gradientUnits="userSpaceOnUse">
<stop stop-color="#FE9738" stop-opacity="0"/>
<stop offset="0.1207" stop-color="#FE9738" stop-opacity="0.016"/>
<stop offset="0.2459" stop-color="#FE9738" stop-opacity="0.065"/>
<stop offset="0.3731" stop-color="#FE9738" stop-opacity="0.147"/>
<stop offset="0.5018" stop-color="#FE9738" stop-opacity="0.262"/>
<stop offset="0.6317" stop-color="#FE9738" stop-opacity="0.41"/>
<stop offset="0.7625" stop-color="#FE9738" stop-opacity="0.59"/>
<stop offset="0.8916" stop-color="#FE9738" stop-opacity="0.8"/>
<stop offset="1" stop-color="#FE9738"/>
</linearGradient>
<linearGradient id="paint5_linear_9_39" x1="17.1542" y1="32.6938" x2="30.3297" y2="45.8693" gradientUnits="userSpaceOnUse">
<stop stop-color="#3692BC"/>
<stop offset="0.2702" stop-color="#3190BA"/>
<stop offset="0.5502" stop-color="#258AB7"/>
<stop offset="0.8337" stop-color="#1081B2"/>
<stop offset="1" stop-color="#017BAE"/>
</linearGradient>
<linearGradient id="paint6_linear_9_39" x1="27.107" y1="42.2541" x2="30.2495" y2="42.2541" gradientUnits="userSpaceOnUse">
<stop stop-color="#3B4D54" stop-opacity="0"/>
<stop offset="0.2132" stop-color="#3B4D54" stop-opacity="0.05"/>
<stop offset="0.4342" stop-color="#3B4D54" stop-opacity="0.198"/>
<stop offset="0.6587" stop-color="#3B4D54" stop-opacity="0.444"/>
<stop offset="0.8843" stop-color="#3B4D54" stop-opacity="0.788"/>
<stop offset="1" stop-color="#3B4D54"/>
</linearGradient>
<linearGradient id="paint7_linear_9_39" x1="26.9996" y1="42.2541" x2="21.1941" y2="42.2541" gradientUnits="userSpaceOnUse">
<stop stop-color="#3692BC"/>
<stop offset="0.2702" stop-color="#3190BA"/>
<stop offset="0.5502" stop-color="#258AB7"/>
<stop offset="0.8337" stop-color="#1081B2"/>
<stop offset="1" stop-color="#017BAE"/>
</linearGradient>
<linearGradient id="paint8_linear_9_39" x1="23.253" y1="35.1987" x2="23.253" y2="32.4059" gradientUnits="userSpaceOnUse">
<stop stop-color="#3B4D54" stop-opacity="0"/>
<stop offset="0.2132" stop-color="#3B4D54" stop-opacity="0.05"/>
<stop offset="0.4342" stop-color="#3B4D54" stop-opacity="0.198"/>
<stop offset="0.6587" stop-color="#3B4D54" stop-opacity="0.444"/>
<stop offset="0.8843" stop-color="#3B4D54" stop-opacity="0.788"/>
<stop offset="1" stop-color="#3B4D54"/>
</linearGradient>
<linearGradient id="paint9_linear_9_39" x1="19.5891" y1="49.5005" x2="27.9836" y2="49.5005" gradientUnits="userSpaceOnUse">
<stop stop-color="#FFDFCF"/>
<stop offset="0.2453" stop-color="#FFDBCA"/>
<stop offset="0.4994" stop-color="#FFD0BE"/>
<stop offset="0.7566" stop-color="#FFBEA9"/>
<stop offset="1" stop-color="#FFA78F"/>
</linearGradient>
<linearGradient id="paint10_linear_9_39" x1="25.2283" y1="49.513" x2="27.4031" y2="51.0031" gradientUnits="userSpaceOnUse">
<stop stop-color="#F89580" stop-opacity="0"/>
<stop offset="0.1375" stop-color="#F6947F" stop-opacity="0.021"/>
<stop offset="0.2801" stop-color="#F3917C" stop-opacity="0.084"/>
<stop offset="0.4251" stop-color="#EE8E78" stop-opacity="0.19"/>
<stop offset="0.5717" stop-color="#E68873" stop-opacity="0.337"/>
<stop offset="0.7196" stop-color="#DD826B" stop-opacity="0.528"/>
<stop offset="0.8663" stop-color="#D17963" stop-opacity="0.757"/>
<stop offset="1" stop-color="#C5715A"/>
</linearGradient>
<linearGradient id="paint11_linear_9_39" x1="21.9721" y1="54.4325" x2="23.9389" y2="54.4325" gradientUnits="userSpaceOnUse">
<stop stop-color="#766E6E"/>
<stop offset="0.2493" stop-color="#716B6B"/>
<stop offset="0.5076" stop-color="#656464"/>
<stop offset="0.769" stop-color="#505757"/>
<stop offset="1" stop-color="#384949"/>
</linearGradient>
<linearGradient id="paint12_linear_9_39" x1="23.253" y1="28.7345" x2="23.253" y2="32.5103" gradientUnits="userSpaceOnUse">
<stop stop-color="#F5FBFF"/>
<stop offset="0.2414" stop-color="#F0F8FE"/>
<stop offset="0.4916" stop-color="#E4F2FE"/>
<stop offset="0.7457" stop-color="#CFE8FE"/>
<stop offset="1" stop-color="#B3DAFE"/>
</linearGradient>
<linearGradient id="paint13_linear_9_39" x1="2.45655" y1="12.3313" x2="2.45655" y2="14.0132" gradientUnits="userSpaceOnUse">
<stop stop-color="#FE9738"/>
<stop offset="0.2396" stop-color="#FD9236"/>
<stop offset="0.4878" stop-color="#FD8633"/>
<stop offset="0.7399" stop-color="#FD712D"/>
<stop offset="0.9934" stop-color="#FD5426"/>
<stop offset="1" stop-color="#FD5426"/>
</linearGradient>
<linearGradient id="paint14_linear_9_39" x1="4.5385" y1="22.1673" x2="4.5385" y2="24.6728" gradientUnits="userSpaceOnUse">
<stop stop-color="#FE9738"/>
<stop offset="0.2396" stop-color="#FD9236"/>
<stop offset="0.4878" stop-color="#FD8633"/>
<stop offset="0.7399" stop-color="#FD712D"/>
<stop offset="0.9934" stop-color="#FD5426"/>
<stop offset="1" stop-color="#FD5426"/>
</linearGradient>
<linearGradient id="paint15_linear_9_39" x1="4.40529" y1="1.92379" x2="4.40529" y2="4.40364" gradientUnits="userSpaceOnUse">
<stop stop-color="#FE9738"/>
<stop offset="0.2396" stop-color="#FD9236"/>
<stop offset="0.4878" stop-color="#FD8633"/>
<stop offset="0.7399" stop-color="#FD712D"/>
<stop offset="0.9934" stop-color="#FD5426"/>
<stop offset="1" stop-color="#FD5426"/>
</linearGradient>
<linearGradient id="paint16_linear_9_39" x1="44.0495" y1="12.3313" x2="44.0495" y2="14.0132" gradientUnits="userSpaceOnUse">
<stop stop-color="#FE9738"/>
<stop offset="0.2396" stop-color="#FD9236"/>
<stop offset="0.4878" stop-color="#FD8633"/>
<stop offset="0.7399" stop-color="#FD712D"/>
<stop offset="0.9934" stop-color="#FD5426"/>
<stop offset="1" stop-color="#FD5426"/>
</linearGradient>
<linearGradient id="paint17_linear_9_39" x1="41.9676" y1="22.1672" x2="41.9676" y2="24.6728" gradientUnits="userSpaceOnUse">
<stop stop-color="#FE9738"/>
<stop offset="0.2396" stop-color="#FD9236"/>
<stop offset="0.4878" stop-color="#FD8633"/>
<stop offset="0.7399" stop-color="#FD712D"/>
<stop offset="0.9934" stop-color="#FD5426"/>
<stop offset="1" stop-color="#FD5426"/>
</linearGradient>
<linearGradient id="paint18_linear_9_39" x1="42.1008" y1="1.92379" x2="42.1008" y2="4.40364" gradientUnits="userSpaceOnUse">
<stop stop-color="#FE9738"/>
<stop offset="0.2396" stop-color="#FD9236"/>
<stop offset="0.4878" stop-color="#FD8633"/>
<stop offset="0.7399" stop-color="#FD712D"/>
<stop offset="0.9934" stop-color="#FD5426"/>
<stop offset="1" stop-color="#FD5426"/>
</linearGradient>
</defs>
</svg>
