<svg width="139" height="60" viewBox="0 0 139 60" fill="none" xmlns="http://www.w3.org/2000/svg">
<path d="M44.2187 16.0546C44.2187 8.28904 37.8531 2 30 2C22.136 2 15.7704 8.31092 15.7813 16.0765C15.7922 20.1452 17.5422 23.7984 20.3313 26.3577C22.2563 28.1187 23.3828 30.5577 23.3828 33.1499V35.8952H36.6172V33.1936C36.6172 30.6015 37.7328 28.1296 39.6578 26.3687C42.4687 23.7984 44.2187 20.1343 44.2187 16.0546Z" fill="url(#paint0_linear_18_291)"/>
<path d="M30 2C28.4469 2 26.9594 2.25156 25.5594 2.7V35.8952H36.6172V33.1936C36.6172 30.6015 37.7328 28.1296 39.6578 26.3687C42.4578 23.7984 44.2187 20.1343 44.2187 16.0546C44.2187 8.28904 37.8531 2 30 2Z" fill="url(#paint1_linear_18_291)"/>
<path d="M15.7813 16.0764C15.7922 20.1451 17.5422 23.7983 20.3313 26.3576C22.2563 28.1186 23.3828 30.5576 23.3828 33.1498V35.8951H36.6172V33.1935C36.6172 30.6014 37.7328 28.1295 39.6578 26.3686C42.4578 23.7983 44.2187 20.1342 44.2187 16.0545C44.2187 15.3545 44.164 14.6655 44.0656 13.9983H15.9344C15.825 14.6764 15.7813 15.3764 15.7813 16.0764Z" fill="url(#paint2_linear_18_291)"/>
<path d="M28.7641 32.7233C28.425 32.7233 28.1406 32.4499 28.1406 32.0999V29.6499C28.1406 28.3265 27.6156 27.0577 26.675 26.1171L26.4781 25.9202C25.4172 24.8593 24.8375 23.4484 24.8375 21.9499V19.5656C24.8375 19.2265 25.111 18.9421 25.461 18.9421C25.8 18.9421 26.0844 19.2156 26.0844 19.5656V21.6984C26.0844 23.0218 26.6094 24.2906 27.55 25.2312L27.7469 25.4281C28.8078 26.489 29.3875 27.8999 29.3875 29.3984V32.1108C29.3766 32.4499 29.1031 32.7233 28.7641 32.7233Z" fill="url(#paint3_linear_18_291)"/>
<path d="M31.2359 32.7233C31.575 32.7233 31.8594 32.4499 31.8594 32.0999V29.6499C31.8594 28.3265 32.3844 27.0577 33.325 26.1171L33.5219 25.9202C34.5828 24.8593 35.1625 23.4484 35.1625 21.9499V19.5656C35.1625 19.2265 34.8891 18.9421 34.5391 18.9421C34.2 18.9421 33.9156 19.2156 33.9156 19.5656V21.6984C33.9156 23.0218 33.3906 24.2906 32.45 25.2312L32.2531 25.4281C31.1922 26.489 30.6125 27.8999 30.6125 29.3984V32.1108C30.6234 32.4499 30.8969 32.7233 31.2359 32.7233Z" fill="url(#paint4_linear_18_291)"/>
<path d="M36.989 33.4014V47.3029C36.989 47.631 36.9562 47.9591 36.8797 48.2763L30 55.1013L23.1203 48.2873C23.0547 47.9701 23.011 47.6419 23.011 47.3138V33.4014H36.989Z" fill="url(#paint5_linear_18_291)"/>
<path d="M28.9172 54.0294L30 55.1013L36.8797 48.2873C36.9453 47.9701 36.989 47.6419 36.989 47.3138V33.4014H28.9172V54.0294Z" fill="url(#paint6_linear_18_291)"/>
<path d="M32.6687 33.4014V47.3029V47.3138C32.6687 47.9044 32.5484 48.4841 32.3406 49.031L30 55.1013L27.6594 49.031C27.4516 48.4841 27.3313 47.9044 27.3313 47.3138V47.3029V33.4014H32.6687Z" fill="url(#paint7_linear_18_291)"/>
<path d="M23.011 33.4014H36.989V43.9779H23.011V33.4014Z" fill="url(#paint8_linear_18_291)"/>
<path d="M36.8797 48.2872C36.7375 48.9325 36.475 49.534 36.0812 50.07L32.3406 55.1887H27.6375L23.8969 50.07C23.5031 49.534 23.2406 48.9215 23.0984 48.2872L23.175 48.2215C23.7109 47.6856 24.5859 47.6856 25.1328 48.2215L26.0953 49.184C26.6313 49.72 27.5062 49.72 28.0531 49.184L29.0156 48.2215C29.5516 47.6856 30.4265 47.6856 30.9734 48.2215L31.9359 49.184C32.4719 49.72 33.3469 49.72 33.8937 49.184L34.8562 48.2215C35.3922 47.6856 36.2672 47.6856 36.814 48.2215L36.8797 48.2872Z" fill="url(#paint9_linear_18_291)"/>
<path d="M36.8797 48.2872C36.7375 48.9325 36.475 49.534 36.0812 50.07L32.3406 55.1887H27.6375L23.8969 50.07C23.5031 49.534 23.2406 48.9215 23.0984 48.2872L23.175 48.2215C23.7109 47.6856 24.5859 47.6856 25.1328 48.2215L26.0953 49.184C26.6313 49.72 27.5062 49.72 28.0531 49.184L29.0156 48.2215C29.5516 47.6856 30.4265 47.6856 30.9734 48.2215L31.9359 49.184C32.4719 49.72 33.3469 49.72 33.8937 49.184L34.8562 48.2215C35.3922 47.6856 36.2672 47.6856 36.814 48.2215L36.8797 48.2872Z" fill="url(#paint10_linear_18_291)"/>
<path d="M30 54.8606C29.125 54.8606 28.3266 54.9809 27.6484 55.1887L29.5297 57.759C29.7594 58.0762 30.2406 58.0762 30.4703 57.759L32.3515 55.1887C31.6734 54.9809 30.875 54.8606 30 54.8606Z" fill="url(#paint11_linear_18_291)"/>
<path d="M23.2625 30.3828H36.7484C37.9625 30.3828 38.9468 31.3672 38.9468 32.5812C38.9468 33.7953 37.9625 34.7797 36.7484 34.7797H23.2625C22.0485 34.7797 21.0641 33.7953 21.0641 32.5812C21.0531 31.3672 22.0375 30.3828 23.2625 30.3828Z" fill="url(#paint12_linear_18_291)"/>
<path d="M6.74696 15.2561C6.74696 14.6546 7.23914 14.1733 7.82976 14.1733H10.5641C11.1657 14.1733 11.6469 14.6655 11.6469 15.2561C11.6469 15.8577 11.1548 16.339 10.5641 16.339H7.82976C7.23914 16.3499 6.74696 15.8577 6.74696 15.2561Z" fill="url(#paint13_linear_18_291)"/>
<path d="M9.02194 26.4999C8.79226 25.9421 9.04382 25.3078 9.60163 25.0781L12.1282 24.0171C12.686 23.7875 13.3204 24.039 13.5501 24.5968C13.7797 25.1546 13.5282 25.789 12.9704 26.0187L10.4438 27.0796C9.89694 27.3203 9.25163 27.0578 9.02194 26.4999Z" fill="url(#paint14_linear_18_291)"/>
<path d="M9.47039 5.78443C8.91258 5.55474 8.65008 4.92037 8.86883 4.36256C9.09852 3.80475 9.73289 3.54225 10.2907 3.761L12.8282 4.80006C13.386 5.02974 13.6485 5.66411 13.4298 6.22193C13.2001 6.77974 12.5657 7.04223 12.0079 6.82349C12.0079 6.81255 9.47039 5.78443 9.47039 5.78443Z" fill="url(#paint15_linear_18_291)"/>
<path d="M53.253 15.2561C53.253 14.6546 52.7609 14.1733 52.1702 14.1733H49.4359C48.8343 14.1733 48.3531 14.6655 48.3531 15.2561C48.3531 15.8577 48.8452 16.339 49.4359 16.339H52.1702C52.7609 16.3499 53.253 15.8577 53.253 15.2561Z" fill="url(#paint16_linear_18_291)"/>
<path d="M50.978 26.4999C51.2077 25.9421 50.9562 25.3078 50.3984 25.0781L47.8718 24.0171C47.314 23.7875 46.6796 24.039 46.4499 24.5968C46.2203 25.1546 46.4718 25.789 47.0296 26.0187L49.5562 27.0796C50.103 27.3203 50.7484 27.0578 50.978 26.4999Z" fill="url(#paint17_linear_18_291)"/>
<path d="M50.5296 5.78443C51.0874 5.55474 51.3499 4.92037 51.1312 4.36256C50.9015 3.80475 50.2671 3.54225 49.7093 3.761L47.1718 4.80006C46.614 5.02974 46.3515 5.66411 46.5703 6.22193C46.7999 6.77974 47.4343 7.04223 47.9921 6.82349L50.5296 5.78443Z" fill="url(#paint18_linear_18_291)"/>
<path d="M63 41V5H72.7303V19.5547H73.2204L84.0007 5H95.3411L83.2307 21.0312L95.6211 41H84.0007L75.9505 27.5L72.7303 31.7188V41H63Z" fill="#469165"/>
<path d="M108.029 5L115.379 30.3828H115.659L123.01 5H134L122.17 41H108.869L97.0387 5H108.029Z" fill="#469165"/>
<path d="M63 54.1687V48H63.9699V50.9458H64.0484L66.7448 48H67.9659L65.3731 50.7771L67.9753 54.1687H66.8076L64.7296 51.4127L63.9699 52.25V54.1687H63Z" fill="white"/>
<path d="M69.7331 51.4217V54.1687H68.7946V49.5422H69.6954V50.2952H69.7551C69.866 50.0502 70.0397 49.8534 70.2762 49.7048C70.5147 49.5562 70.815 49.4819 71.177 49.4819C71.5056 49.4819 71.7933 49.5482 72.0403 49.6807C72.2872 49.8112 72.4787 50.006 72.6147 50.2651C72.7507 50.5241 72.8187 50.8444 72.8187 51.2259V54.1687H71.8802V51.3343C71.8802 50.999 71.7891 50.7369 71.6071 50.5482C71.425 50.3574 71.1749 50.262 70.8569 50.262C70.6392 50.262 70.4457 50.3072 70.2762 50.3976C70.1087 50.488 69.9759 50.6205 69.8775 50.7952C69.7812 50.9679 69.7331 51.1767 69.7331 51.4217Z" fill="white"/>
<path d="M76.1084 54.262C75.6564 54.262 75.2619 54.1627 74.925 53.9639C74.5881 53.7651 74.3265 53.4869 74.1402 53.1295C73.954 52.7721 73.8609 52.3544 73.8609 51.8765C73.8609 51.3966 73.954 50.9769 74.1402 50.6175C74.3265 50.258 74.5881 49.9789 74.925 49.7801C75.2619 49.5813 75.6564 49.4819 76.1084 49.4819C76.5604 49.4819 76.9549 49.5813 77.2918 49.7801C77.6287 49.9789 77.8903 50.258 78.0765 50.6175C78.2628 50.9769 78.3559 51.3966 78.3559 51.8765C78.3559 52.3544 78.2628 52.7721 78.0765 53.1295C77.8903 53.4869 77.6287 53.7651 77.2918 53.9639C76.9549 54.1627 76.5604 54.262 76.1084 54.262ZM76.1115 53.506C76.4045 53.506 76.6472 53.4317 76.8398 53.2831C77.0323 53.1345 77.1746 52.9367 77.2667 52.6898C77.3608 52.4428 77.4079 52.1707 77.4079 51.8735C77.4079 51.5783 77.3608 51.3072 77.2667 51.0602C77.1746 50.8112 77.0323 50.6114 76.8398 50.4608C76.6472 50.3102 76.4045 50.2349 76.1115 50.2349C75.8164 50.2349 75.5716 50.3102 75.377 50.4608C75.1845 50.6114 75.0411 50.8112 74.947 51.0602C74.8549 51.3072 74.8088 51.5783 74.8088 51.8735C74.8088 52.1707 74.8549 52.4428 74.947 52.6898C75.0411 52.9367 75.1845 53.1345 75.377 53.2831C75.5716 53.4317 75.8164 53.506 76.1115 53.506Z" fill="white"/>
<path d="M80.302 54.1687L78.8832 49.5422H79.8532L80.798 52.9398H80.8451L81.7931 49.5422H82.763L83.7047 52.9247H83.7518L84.6903 49.5422H85.6603L84.2446 54.1687H83.2872L82.3079 50.8283H82.2357L81.2563 54.1687H80.302Z" fill="white"/>
<path d="M87.4895 48V54.1687H86.551V48H87.4895Z" fill="white"/>
<path d="M90.8302 54.262C90.3552 54.262 89.946 54.1647 89.6028 53.9699C89.2617 53.7731 88.9981 53.497 88.8118 53.1416C88.6277 52.7841 88.5356 52.3655 88.5356 51.8855C88.5356 51.4116 88.6277 50.994 88.8118 50.6325C88.9981 50.2711 89.2576 49.989 89.5903 49.7861C89.9251 49.5833 90.3164 49.4819 90.7643 49.4819C91.0363 49.4819 91.3 49.5251 91.5553 49.6114C91.8106 49.6978 92.0397 49.8333 92.2427 50.0181C92.4457 50.2028 92.6058 50.4428 92.723 50.738C92.8402 51.0311 92.8988 51.3876 92.8988 51.8072V52.1265H89.0661V51.4518H91.979C91.979 51.2149 91.9288 51.005 91.8284 50.8223C91.7279 50.6376 91.5867 50.492 91.4046 50.3855C91.2246 50.2791 91.0133 50.2259 90.7705 50.2259C90.5069 50.2259 90.2767 50.2882 90.08 50.4127C89.8853 50.5351 89.7347 50.6958 89.628 50.8946C89.5233 51.0914 89.471 51.3052 89.471 51.5361V52.0633C89.471 52.3725 89.5275 52.6355 89.6405 52.8524C89.7556 53.0693 89.9157 53.2349 90.1208 53.3494C90.3259 53.4618 90.5655 53.5181 90.8396 53.5181C91.0175 53.5181 91.1797 53.494 91.3261 53.4458C91.4726 53.3956 91.5992 53.3213 91.706 53.2229C91.8127 53.1245 91.8943 53.003 91.9508 52.8584L92.8391 53.012C92.768 53.2631 92.6403 53.4829 92.4562 53.6717C92.2741 53.8584 92.045 54.004 91.7687 54.1084C91.4946 54.2108 91.1817 54.262 90.8302 54.262Z" fill="white"/>
<path d="M95.745 54.259C95.3558 54.259 95.0084 54.1637 94.7029 53.9729C94.3995 53.7801 94.1609 53.506 93.9872 53.1506C93.8156 52.7932 93.7298 52.3645 93.7298 51.8645C93.7298 51.3645 93.8167 50.9367 93.9903 50.5813C94.1661 50.2259 94.4068 49.9538 94.7123 49.7651C95.0178 49.5763 95.3642 49.4819 95.7513 49.4819C96.0506 49.4819 96.2912 49.5301 96.4733 49.6265C96.6574 49.7209 96.7997 49.8313 96.9002 49.9578C97.0027 50.0843 97.0822 50.1958 97.1387 50.2922H97.1952V48H98.1338V54.1687H97.2172V53.4488H97.1387C97.0822 53.5472 97.0006 53.6596 96.8939 53.7861C96.7893 53.9127 96.6449 54.0231 96.4607 54.1175C96.2766 54.2118 96.038 54.259 95.745 54.259ZM95.9522 53.491C96.2222 53.491 96.4503 53.4227 96.6365 53.2861C96.8248 53.1476 96.9671 52.9558 97.0634 52.7108C97.1618 52.4659 97.2109 52.1807 97.2109 51.8554C97.2109 51.5341 97.1628 51.253 97.0665 51.012C96.9703 50.7711 96.829 50.5833 96.6428 50.4488C96.4565 50.3143 96.2263 50.247 95.9522 50.247C95.6697 50.247 95.4343 50.3173 95.2459 50.4578C95.0576 50.5984 94.9153 50.7902 94.819 51.0331C94.7249 51.2761 94.6778 51.5502 94.6778 51.8554C94.6778 52.1647 94.7259 52.4428 94.8222 52.6898C94.9184 52.9367 95.0607 53.1325 95.2491 53.2771C95.4395 53.4197 95.6739 53.491 95.9522 53.491Z" fill="white"/>
<path d="M101.495 56C101.112 56 100.782 55.9518 100.506 55.8554C100.232 55.759 100.008 55.6315 99.8343 55.4729C99.6606 55.3143 99.5309 55.1406 99.4451 54.9518L100.252 54.6325C100.308 54.7209 100.384 54.8143 100.478 54.9127C100.574 55.0131 100.704 55.0984 100.867 55.1687C101.032 55.239 101.245 55.2741 101.504 55.2741C101.86 55.2741 102.154 55.1908 102.386 55.0241C102.619 54.8594 102.735 54.5964 102.735 54.2349V53.3253H102.675C102.619 53.4237 102.537 53.5331 102.43 53.6536C102.326 53.7741 102.181 53.8785 101.997 53.9669C101.813 54.0552 101.573 54.0994 101.278 54.0994C100.897 54.0994 100.554 54.0141 100.249 53.8434C99.9453 53.6707 99.7046 53.4167 99.5267 53.0813C99.3509 52.744 99.2631 52.3293 99.2631 51.8373C99.2631 51.3454 99.3499 50.9237 99.5236 50.5723C99.6994 50.2209 99.94 49.9518 100.246 49.7651C100.551 49.5763 100.897 49.4819 101.285 49.4819C101.584 49.4819 101.825 49.5301 102.01 49.6265C102.194 49.7209 102.337 49.8313 102.44 49.9578C102.544 50.0843 102.625 50.1958 102.681 50.2922H102.75V49.5422H103.67V54.2711C103.67 54.6687 103.574 54.995 103.381 55.25C103.189 55.505 102.928 55.6938 102.6 55.8163C102.273 55.9388 101.905 56 101.495 56ZM101.485 53.3524C101.755 53.3524 101.983 53.2922 102.17 53.1717C102.358 53.0492 102.5 52.8745 102.597 52.6476C102.695 52.4187 102.744 52.1446 102.744 51.8253C102.744 51.5141 102.696 51.24 102.6 51.003C102.504 50.7661 102.362 50.5813 102.176 50.4488C101.99 50.3143 101.76 50.247 101.485 50.247C101.203 50.247 100.968 50.3173 100.779 50.4578C100.591 50.5964 100.449 50.7851 100.352 51.0241C100.258 51.2631 100.211 51.5301 100.211 51.8253C100.211 52.1285 100.259 52.3946 100.355 52.6235C100.452 52.8524 100.594 53.0311 100.782 53.1596C100.973 53.2882 101.207 53.3524 101.485 53.3524Z" fill="white"/>
<path d="M107.007 54.262C106.532 54.262 106.123 54.1647 105.78 53.9699C105.438 53.7731 105.175 53.497 104.989 53.1416C104.804 52.7841 104.712 52.3655 104.712 51.8855C104.712 51.4116 104.804 50.994 104.989 50.6325C105.175 50.2711 105.434 49.989 105.767 49.7861C106.102 49.5833 106.493 49.4819 106.941 49.4819C107.213 49.4819 107.477 49.5251 107.732 49.6114C107.987 49.6978 108.216 49.8333 108.419 50.0181C108.622 50.2028 108.783 50.4428 108.9 50.738C109.017 51.0311 109.075 51.3876 109.075 51.8072V52.1265H105.243V51.4518H108.156C108.156 51.2149 108.106 51.005 108.005 50.8223C107.905 50.6376 107.763 50.492 107.581 50.3855C107.401 50.2791 107.19 50.2259 106.947 50.2259C106.684 50.2259 106.453 50.2882 106.257 50.4127C106.062 50.5351 105.911 50.6958 105.805 50.8946C105.7 51.0914 105.648 51.3052 105.648 51.5361V52.0633C105.648 52.3725 105.704 52.6355 105.817 52.8524C105.932 53.0693 106.092 53.2349 106.298 53.3494C106.503 53.4618 106.742 53.5181 107.016 53.5181C107.194 53.5181 107.356 53.494 107.503 53.4458C107.649 53.3956 107.776 53.3213 107.883 53.2229C107.989 53.1245 108.071 53.003 108.128 52.8584L109.016 53.012C108.945 53.2631 108.817 53.4829 108.633 53.6717C108.451 53.8584 108.222 54.004 107.945 54.1084C107.671 54.2108 107.358 54.262 107.007 54.262Z" fill="white"/>
<path d="M113.093 48L114.883 53.0241H114.955L116.744 48H117.792L115.479 54.1687H114.358L112.045 48H113.093Z" fill="white"/>
<path d="M119.574 54.2711C119.268 54.2711 118.992 54.2169 118.745 54.1084C118.498 53.998 118.303 53.8384 118.158 53.6295C118.016 53.4207 117.945 53.1647 117.945 52.8614C117.945 52.6004 117.997 52.3855 118.102 52.2169C118.206 52.0482 118.348 51.9147 118.525 51.8163C118.703 51.7179 118.902 51.6436 119.122 51.5934C119.342 51.5432 119.565 51.505 119.794 51.4789C120.082 51.4468 120.317 51.4207 120.497 51.4006C120.677 51.3785 120.807 51.3434 120.889 51.2952C120.971 51.247 121.011 51.1687 121.011 51.0602V51.0392C121.011 50.7761 120.934 50.5723 120.779 50.4277C120.626 50.2831 120.398 50.2108 120.095 50.2108C119.779 50.2108 119.53 50.2781 119.348 50.4127C119.168 50.5452 119.043 50.6928 118.974 50.8554L118.092 50.6627C118.197 50.3815 118.35 50.1546 118.551 49.9819C118.753 49.8072 118.987 49.6807 119.25 49.6024C119.514 49.5221 119.791 49.4819 120.082 49.4819C120.275 49.4819 120.479 49.504 120.694 49.5482C120.912 49.5904 121.115 49.6687 121.303 49.7831C121.494 49.8976 121.65 50.0612 121.771 50.2741C121.892 50.4849 121.953 50.759 121.953 51.0964V54.1687H121.037V53.5361H120.999C120.938 53.6526 120.847 53.7671 120.726 53.8795C120.604 53.992 120.449 54.0853 120.258 54.1596C120.068 54.2339 119.84 54.2711 119.574 54.2711ZM119.778 53.5482C120.037 53.5482 120.259 53.499 120.443 53.4006C120.63 53.3022 120.771 53.1737 120.867 53.0151C120.965 52.8544 121.015 52.6827 121.015 52.5V51.9036C120.981 51.9357 120.916 51.9659 120.82 51.994C120.726 52.0201 120.618 52.0432 120.497 52.0633C120.375 52.0813 120.257 52.0984 120.142 52.1145C120.027 52.1285 119.931 52.1406 119.853 52.1506C119.671 52.1727 119.505 52.2098 119.354 52.262C119.206 52.3143 119.086 52.3896 118.996 52.488C118.908 52.5843 118.864 52.7129 118.864 52.8735C118.864 53.0964 118.95 53.2651 119.122 53.3795C119.293 53.492 119.512 53.5482 119.778 53.5482Z" fill="white"/>
<path d="M126.257 52.25V49.5422H127.199V54.1687H126.276V53.3675H126.226C126.115 53.6145 125.937 53.8203 125.692 53.9849C125.45 54.1476 125.147 54.2289 124.785 54.2289C124.476 54.2289 124.201 54.1637 123.963 54.0331C123.726 53.9006 123.54 53.7048 123.404 53.4458C123.27 53.1867 123.203 52.8665 123.203 52.4849V49.5422H124.142V52.3765C124.142 52.6918 124.233 52.9428 124.415 53.1295C124.597 53.3163 124.833 53.4096 125.124 53.4096C125.3 53.4096 125.475 53.3675 125.649 53.2831C125.824 53.1988 125.97 53.0713 126.085 52.9006C126.202 52.7299 126.26 52.5131 126.257 52.25Z" fill="white"/>
<path d="M129.399 48V54.1687H128.46V48H129.399Z" fill="white"/>
<path d="M132.912 49.5422V50.2651H130.279V49.5422H132.912ZM130.985 48.4337H131.923V52.8102C131.923 52.9849 131.951 53.1165 132.005 53.2048C132.059 53.2912 132.129 53.3504 132.215 53.3825C132.303 53.4127 132.398 53.4277 132.501 53.4277C132.576 53.4277 132.642 53.4227 132.699 53.4127C132.755 53.4026 132.799 53.3946 132.83 53.3886L133 54.1325C132.946 54.1526 132.868 54.1727 132.768 54.1928C132.667 54.2149 132.542 54.2269 132.391 54.2289C132.144 54.2329 131.914 54.1908 131.7 54.1024C131.487 54.0141 131.314 53.8775 131.183 53.6928C131.051 53.508 130.985 53.2761 130.985 52.997V48.4337Z" fill="white"/>
<defs>
<linearGradient id="paint0_linear_18_291" x1="20.1482" y1="9.43846" x2="41.4328" y2="30.723" gradientUnits="userSpaceOnUse">
<stop stop-color="#FEF48B"/>
<stop offset="0.1646" stop-color="#FDF286"/>
<stop offset="0.3352" stop-color="#FDEE7A"/>
<stop offset="0.5086" stop-color="#FCE765"/>
<stop offset="0.6839" stop-color="#FCDE48"/>
<stop offset="0.8589" stop-color="#FBD123"/>
<stop offset="1" stop-color="#FAC600"/>
</linearGradient>
<linearGradient id="paint1_linear_18_291" x1="33.0793" y1="20.5652" x2="42.1005" y2="24.3509" gradientUnits="userSpaceOnUse">
<stop stop-color="#FE9738" stop-opacity="0"/>
<stop offset="0.1207" stop-color="#FE9738" stop-opacity="0.016"/>
<stop offset="0.2459" stop-color="#FE9738" stop-opacity="0.065"/>
<stop offset="0.3731" stop-color="#FE9738" stop-opacity="0.147"/>
<stop offset="0.5018" stop-color="#FE9738" stop-opacity="0.262"/>
<stop offset="0.6317" stop-color="#FE9738" stop-opacity="0.41"/>
<stop offset="0.7625" stop-color="#FE9738" stop-opacity="0.59"/>
<stop offset="0.8916" stop-color="#FE9738" stop-opacity="0.8"/>
<stop offset="1" stop-color="#FE9738"/>
</linearGradient>
<linearGradient id="paint2_linear_18_291" x1="30" y1="25.7611" x2="30" y2="31.276" gradientUnits="userSpaceOnUse">
<stop stop-color="#FE9738" stop-opacity="0"/>
<stop offset="0.1207" stop-color="#FE9738" stop-opacity="0.016"/>
<stop offset="0.2459" stop-color="#FE9738" stop-opacity="0.065"/>
<stop offset="0.3731" stop-color="#FE9738" stop-opacity="0.147"/>
<stop offset="0.5018" stop-color="#FE9738" stop-opacity="0.262"/>
<stop offset="0.6317" stop-color="#FE9738" stop-opacity="0.41"/>
<stop offset="0.7625" stop-color="#FE9738" stop-opacity="0.59"/>
<stop offset="0.8916" stop-color="#FE9738" stop-opacity="0.8"/>
<stop offset="1" stop-color="#FE9738"/>
</linearGradient>
<linearGradient id="paint3_linear_18_291" x1="20.7165" y1="9.4587" x2="31.0264" y2="35.8779" gradientUnits="userSpaceOnUse">
<stop stop-color="#FE9738" stop-opacity="0"/>
<stop offset="0.1207" stop-color="#FE9738" stop-opacity="0.016"/>
<stop offset="0.2459" stop-color="#FE9738" stop-opacity="0.065"/>
<stop offset="0.3731" stop-color="#FE9738" stop-opacity="0.147"/>
<stop offset="0.5018" stop-color="#FE9738" stop-opacity="0.262"/>
<stop offset="0.6317" stop-color="#FE9738" stop-opacity="0.41"/>
<stop offset="0.7625" stop-color="#FE9738" stop-opacity="0.59"/>
<stop offset="0.8916" stop-color="#FE9738" stop-opacity="0.8"/>
<stop offset="1" stop-color="#FE9738"/>
</linearGradient>
<linearGradient id="paint4_linear_18_291" x1="25.7361" y1="7.4998" x2="36.0461" y2="33.919" gradientUnits="userSpaceOnUse">
<stop stop-color="#FE9738" stop-opacity="0"/>
<stop offset="0.1207" stop-color="#FE9738" stop-opacity="0.016"/>
<stop offset="0.2459" stop-color="#FE9738" stop-opacity="0.065"/>
<stop offset="0.3731" stop-color="#FE9738" stop-opacity="0.147"/>
<stop offset="0.5018" stop-color="#FE9738" stop-opacity="0.262"/>
<stop offset="0.6317" stop-color="#FE9738" stop-opacity="0.41"/>
<stop offset="0.7625" stop-color="#FE9738" stop-opacity="0.59"/>
<stop offset="0.8916" stop-color="#FE9738" stop-opacity="0.8"/>
<stop offset="1" stop-color="#FE9738"/>
</linearGradient>
<linearGradient id="paint5_linear_18_291" x1="23.9012" y1="34.6937" x2="37.0766" y2="47.8692" gradientUnits="userSpaceOnUse">
<stop stop-color="#3692BC"/>
<stop offset="0.2702" stop-color="#3190BA"/>
<stop offset="0.5502" stop-color="#258AB7"/>
<stop offset="0.8337" stop-color="#1081B2"/>
<stop offset="1" stop-color="#017BAE"/>
</linearGradient>
<linearGradient id="paint6_linear_18_291" x1="33.8539" y1="44.2541" x2="36.9965" y2="44.2541" gradientUnits="userSpaceOnUse">
<stop stop-color="#3B4D54" stop-opacity="0"/>
<stop offset="0.2132" stop-color="#3B4D54" stop-opacity="0.05"/>
<stop offset="0.4342" stop-color="#3B4D54" stop-opacity="0.198"/>
<stop offset="0.6587" stop-color="#3B4D54" stop-opacity="0.444"/>
<stop offset="0.8843" stop-color="#3B4D54" stop-opacity="0.788"/>
<stop offset="1" stop-color="#3B4D54"/>
</linearGradient>
<linearGradient id="paint7_linear_18_291" x1="33.7465" y1="44.2541" x2="27.941" y2="44.2541" gradientUnits="userSpaceOnUse">
<stop stop-color="#3692BC"/>
<stop offset="0.2702" stop-color="#3190BA"/>
<stop offset="0.5502" stop-color="#258AB7"/>
<stop offset="0.8337" stop-color="#1081B2"/>
<stop offset="1" stop-color="#017BAE"/>
</linearGradient>
<linearGradient id="paint8_linear_18_291" x1="30" y1="37.1986" x2="30" y2="34.4059" gradientUnits="userSpaceOnUse">
<stop stop-color="#3B4D54" stop-opacity="0"/>
<stop offset="0.2132" stop-color="#3B4D54" stop-opacity="0.05"/>
<stop offset="0.4342" stop-color="#3B4D54" stop-opacity="0.198"/>
<stop offset="0.6587" stop-color="#3B4D54" stop-opacity="0.444"/>
<stop offset="0.8843" stop-color="#3B4D54" stop-opacity="0.788"/>
<stop offset="1" stop-color="#3B4D54"/>
</linearGradient>
<linearGradient id="paint9_linear_18_291" x1="26.336" y1="51.5004" x2="34.7306" y2="51.5004" gradientUnits="userSpaceOnUse">
<stop stop-color="#FFDFCF"/>
<stop offset="0.2453" stop-color="#FFDBCA"/>
<stop offset="0.4994" stop-color="#FFD0BE"/>
<stop offset="0.7566" stop-color="#FFBEA9"/>
<stop offset="1" stop-color="#FFA78F"/>
</linearGradient>
<linearGradient id="paint10_linear_18_291" x1="31.9753" y1="51.5128" x2="34.1501" y2="53.003" gradientUnits="userSpaceOnUse">
<stop stop-color="#F89580" stop-opacity="0"/>
<stop offset="0.1375" stop-color="#F6947F" stop-opacity="0.021"/>
<stop offset="0.2801" stop-color="#F3917C" stop-opacity="0.084"/>
<stop offset="0.4251" stop-color="#EE8E78" stop-opacity="0.19"/>
<stop offset="0.5717" stop-color="#E68873" stop-opacity="0.337"/>
<stop offset="0.7196" stop-color="#DD826B" stop-opacity="0.528"/>
<stop offset="0.8663" stop-color="#D17963" stop-opacity="0.757"/>
<stop offset="1" stop-color="#C5715A"/>
</linearGradient>
<linearGradient id="paint11_linear_18_291" x1="28.7191" y1="56.4323" x2="30.6859" y2="56.4323" gradientUnits="userSpaceOnUse">
<stop stop-color="#766E6E"/>
<stop offset="0.2493" stop-color="#716B6B"/>
<stop offset="0.5076" stop-color="#656464"/>
<stop offset="0.769" stop-color="#505757"/>
<stop offset="1" stop-color="#384949"/>
</linearGradient>
<linearGradient id="paint12_linear_18_291" x1="30" y1="30.7346" x2="30" y2="34.5104" gradientUnits="userSpaceOnUse">
<stop stop-color="#F5FBFF"/>
<stop offset="0.2414" stop-color="#F0F8FE"/>
<stop offset="0.4916" stop-color="#E4F2FE"/>
<stop offset="0.7457" stop-color="#CFE8FE"/>
<stop offset="1" stop-color="#B3DAFE"/>
</linearGradient>
<linearGradient id="paint13_linear_18_291" x1="9.20351" y1="14.3313" x2="9.20351" y2="16.0131" gradientUnits="userSpaceOnUse">
<stop stop-color="#FE9738"/>
<stop offset="0.2396" stop-color="#FD9236"/>
<stop offset="0.4878" stop-color="#FD8633"/>
<stop offset="0.7399" stop-color="#FD712D"/>
<stop offset="0.9934" stop-color="#FD5426"/>
<stop offset="1" stop-color="#FD5426"/>
</linearGradient>
<linearGradient id="paint14_linear_18_291" x1="11.2855" y1="24.1673" x2="11.2855" y2="26.6729" gradientUnits="userSpaceOnUse">
<stop stop-color="#FE9738"/>
<stop offset="0.2396" stop-color="#FD9236"/>
<stop offset="0.4878" stop-color="#FD8633"/>
<stop offset="0.7399" stop-color="#FD712D"/>
<stop offset="0.9934" stop-color="#FD5426"/>
<stop offset="1" stop-color="#FD5426"/>
</linearGradient>
<linearGradient id="paint15_linear_18_291" x1="11.1522" y1="3.92386" x2="11.1522" y2="6.40371" gradientUnits="userSpaceOnUse">
<stop stop-color="#FE9738"/>
<stop offset="0.2396" stop-color="#FD9236"/>
<stop offset="0.4878" stop-color="#FD8633"/>
<stop offset="0.7399" stop-color="#FD712D"/>
<stop offset="0.9934" stop-color="#FD5426"/>
<stop offset="1" stop-color="#FD5426"/>
</linearGradient>
<linearGradient id="paint16_linear_18_291" x1="50.7965" y1="14.3313" x2="50.7965" y2="16.0131" gradientUnits="userSpaceOnUse">
<stop stop-color="#FE9738"/>
<stop offset="0.2396" stop-color="#FD9236"/>
<stop offset="0.4878" stop-color="#FD8633"/>
<stop offset="0.7399" stop-color="#FD712D"/>
<stop offset="0.9934" stop-color="#FD5426"/>
<stop offset="1" stop-color="#FD5426"/>
</linearGradient>
<linearGradient id="paint17_linear_18_291" x1="48.7145" y1="24.1672" x2="48.7145" y2="26.6729" gradientUnits="userSpaceOnUse">
<stop stop-color="#FE9738"/>
<stop offset="0.2396" stop-color="#FD9236"/>
<stop offset="0.4878" stop-color="#FD8633"/>
<stop offset="0.7399" stop-color="#FD712D"/>
<stop offset="0.9934" stop-color="#FD5426"/>
<stop offset="1" stop-color="#FD5426"/>
</linearGradient>
<linearGradient id="paint18_linear_18_291" x1="48.8478" y1="3.92386" x2="48.8478" y2="6.40371" gradientUnits="userSpaceOnUse">
<stop stop-color="#FE9738"/>
<stop offset="0.2396" stop-color="#FD9236"/>
<stop offset="0.4878" stop-color="#FD8633"/>
<stop offset="0.7399" stop-color="#FD712D"/>
<stop offset="0.9934" stop-color="#FD5426"/>
<stop offset="1" stop-color="#FD5426"/>
</linearGradient>
</defs>
</svg>
